<svg width="9" height="11" viewBox="0 0 9 11" fill="none" xmlns="http://www.w3.org/2000/svg">
<path d="M3.84772 5.36922L0.416307 5.27949C0.382281 5.27872 0.348744 5.2712 0.317626 5.25738C0.286508 5.24357 0.258423 5.22372 0.234989 5.19898C0.211555 5.17423 0.193227 5.14509 0.181073 5.11322C0.168919 5.08136 0.16318 5.04739 0.164172 5.01329C0.16392 4.97881 0.170703 4.94465 0.184114 4.9129C0.197526 4.88115 0.21728 4.85248 0.242156 4.82867C0.267031 4.80485 0.296504 4.78639 0.328762 4.77442C0.361021 4.76245 0.39538 4.75722 0.429729 4.75906L3.86114 4.84879C3.92999 4.84879 3.99602 4.87621 4.04471 4.92501C4.09339 4.97381 4.12073 5.03999 4.12073 5.109C4.12073 5.17802 4.09339 5.2442 4.04471 5.293C3.99602 5.3418 3.92999 5.36922 3.86114 5.36922H3.84772Z" fill="#EDB24E"/>
<path d="M8.72474 5.40061L6.33767 5.33032C6.30364 5.32935 6.27014 5.32165 6.23909 5.30765C6.20804 5.29366 6.18007 5.27364 6.15677 5.24876C6.13348 5.22388 6.11532 5.19462 6.10335 5.16268C6.09138 5.13073 6.08583 5.09673 6.08702 5.06263C6.09048 4.99413 6.12019 4.92961 6.16994 4.88252C6.21969 4.83544 6.28566 4.80942 6.35408 4.8099L8.74115 4.88019C8.81 4.88019 8.87602 4.90759 8.92471 4.95639C8.97339 5.00519 9.00074 5.07139 9.00074 5.1404C9.00074 5.20941 8.97339 5.27559 8.92471 5.32439C8.87602 5.37319 8.81 5.40061 8.74115 5.40061H8.72474Z" fill="#EDB24E"/>
<path d="M5.12026 3.86179C5.05178 3.8614 4.9862 3.83406 4.93765 3.78567C4.88909 3.73728 4.86145 3.6717 4.86066 3.60307L4.8368 0.501458C4.83679 0.432564 4.86388 0.366449 4.9122 0.317454C4.96052 0.268459 5.02617 0.240538 5.0949 0.23975C5.12892 0.239553 5.16264 0.246096 5.19412 0.25901C5.22561 0.271923 5.25424 0.290955 5.27836 0.314999C5.30249 0.339043 5.32164 0.367623 5.3347 0.39911C5.34776 0.430597 5.35449 0.464363 5.35449 0.498465L5.37836 3.60607C5.37875 3.64024 5.37243 3.67415 5.35974 3.70588C5.34706 3.7376 5.32827 3.7665 5.30444 3.79095C5.28061 3.81539 5.25221 3.83488 5.22087 3.84832C5.18952 3.86176 5.15584 3.86888 5.12175 3.86927L5.12026 3.86179Z" fill="#EDB24E"/>
<path d="M5.13972 10.3925C5.07163 10.3925 5.00628 10.3657 4.95772 10.3179C4.90917 10.2701 4.8813 10.205 4.88012 10.1368L4.82939 6.54766C4.8284 6.47864 4.85481 6.41207 4.9028 6.36257C4.95078 6.31307 5.01641 6.28469 5.08526 6.2837C5.15411 6.28271 5.22053 6.30918 5.26991 6.35728C5.31929 6.40538 5.3476 6.47117 5.34859 6.54018L5.39931 10.1293C5.3997 10.1635 5.39338 10.1974 5.38069 10.2291C5.36801 10.2608 5.34922 10.2897 5.32539 10.3142C5.30157 10.3386 5.27317 10.3581 5.24182 10.3716C5.21047 10.385 5.17679 10.3921 5.1427 10.3925H5.13972Z" fill="#EDB24E"/>
</svg>
