<svg width="8" height="13" viewBox="0 0 8 13" fill="none" xmlns="http://www.w3.org/2000/svg">
<path d="M3.73036 12.8106H3.68037C3.59019 12.7982 3.50799 12.7525 3.4501 12.6825C3.39221 12.6125 3.36287 12.5233 3.36791 12.4327C3.48664 10.4787 2.23473 8.42922 0.178764 7.20617C0.124333 7.17427 0.0792039 7.12875 0.0478488 7.07412C0.0164938 7.01949 0 6.95764 0 6.8947C0 6.83176 0.0164938 6.7699 0.0478488 6.71527C0.0792039 6.66064 0.124333 6.61512 0.178764 6.58322C2.31389 5.38094 3.73661 2.8933 3.71994 0.391127C3.71881 0.296357 3.75508 0.204941 3.82093 0.136578C3.88678 0.0682154 3.97694 0.0283855 4.07198 0.0256688C4.1663 0.0243905 4.25752 0.0591957 4.32688 0.122928C4.39624 0.186661 4.43846 0.274471 4.44485 0.368288C4.51359 1.6661 4.58441 3.00543 5.03643 4.2181C5.51553 5.51176 6.41749 6.46279 7.44652 6.76388C7.52471 6.78634 7.59304 6.83438 7.64051 6.90027C7.68799 6.96615 7.71184 7.04603 7.70823 7.12707C7.70463 7.20811 7.67376 7.28558 7.62062 7.34702C7.56748 7.40845 7.49515 7.45026 7.41527 7.46573C6.51956 7.64223 5.67801 8.33578 5.10725 9.36572C4.57399 10.3313 4.31986 11.4526 4.06573 12.5344C4.04733 12.6105 4.0047 12.6785 3.94423 12.7283C3.88376 12.7781 3.80871 12.807 3.73036 12.8106ZM1.04115 6.89678C2.35003 7.77673 3.33402 9.05954 3.84284 10.5493C4.00297 10.0161 4.21725 9.50053 4.48234 9.01064C4.91378 8.19001 5.57718 7.51354 6.39041 7.06497C5.44546 6.44473 4.73342 5.52973 4.36569 4.46313C4.19721 4.00242 4.06965 3.52785 3.98449 3.04488C3.42947 4.60294 2.40053 5.9495 1.04115 6.89678Z" fill="#EDB24E"/>
</svg>
