<svg width="20" height="23" viewBox="0 0 20 23" fill="none" xmlns="http://www.w3.org/2000/svg">
<path d="M8.59931 11.4543L1.00731 11.2558C0.932027 11.2541 0.857826 11.2374 0.788977 11.2069C0.720129 11.1763 0.657992 11.1324 0.606144 11.0776C0.554296 11.0229 0.513744 10.9584 0.486854 10.8879C0.459965 10.8174 0.447266 10.7423 0.449462 10.6668C0.448903 10.5905 0.46391 10.5149 0.493584 10.4447C0.523257 10.3744 0.566963 10.311 0.622 10.2583C0.677037 10.2056 0.742246 10.1648 0.813617 10.1383C0.884989 10.1118 0.961009 10.1003 1.03701 10.1043L8.62901 10.3029C8.78133 10.3029 8.92743 10.3635 9.03515 10.4715C9.14286 10.5795 9.20335 10.7259 9.20335 10.8786C9.20335 11.0313 9.14286 11.1777 9.03515 11.2857C8.92743 11.3936 8.78133 11.4543 8.62901 11.4543H8.59931Z" fill="#EDB24E"/>
<path d="M19.3897 11.5238L14.1083 11.3682C14.033 11.3661 13.9589 11.3491 13.8902 11.3181C13.8215 11.2871 13.7596 11.2428 13.7081 11.1878C13.6565 11.1327 13.6164 11.068 13.5899 10.9973C13.5634 10.9267 13.5511 10.8514 13.5538 10.776C13.5614 10.6244 13.6271 10.4817 13.7372 10.3775C13.8473 10.2733 13.9932 10.2158 14.1446 10.2168L19.426 10.3723C19.5784 10.3723 19.7244 10.433 19.8321 10.5409C19.9399 10.6489 20.0004 10.7953 20.0004 10.948C20.0004 11.1007 19.9399 11.2472 19.8321 11.3551C19.7244 11.4631 19.5784 11.5238 19.426 11.5238H19.3897Z" fill="#EDB24E"/>
<path d="M11.4148 8.11911C11.2633 8.11825 11.1182 8.05777 11.0108 7.9507C10.9033 7.84363 10.8422 7.69855 10.8404 7.5467L10.7876 0.684385C10.7876 0.531957 10.8476 0.385676 10.9545 0.277276C11.0614 0.168875 11.2066 0.107098 11.3587 0.105356C11.434 0.10492 11.5086 0.119397 11.5782 0.147968C11.6479 0.176539 11.7112 0.218646 11.7646 0.271843C11.818 0.32504 11.8604 0.388275 11.8893 0.45794C11.9182 0.527604 11.933 0.602312 11.933 0.677761L11.9858 7.55333C11.9867 7.62893 11.9727 7.70397 11.9447 7.77416C11.9166 7.84434 11.875 7.9083 11.8223 7.96238C11.7696 8.01645 11.7068 8.05959 11.6374 8.08932C11.568 8.11905 11.4935 8.1348 11.4181 8.13567L11.4148 8.11911Z" fill="#EDB24E"/>
<path d="M11.4578 22.5684C11.3072 22.5684 11.1626 22.5091 11.0552 22.4033C10.9478 22.2974 10.8861 22.1536 10.8835 22.0026L10.7713 14.0616C10.7691 13.9089 10.8275 13.7616 10.9337 13.6521C11.0398 13.5426 11.185 13.4798 11.3374 13.4776C11.4897 13.4754 11.6367 13.534 11.7459 13.6404C11.8552 13.7468 11.9178 13.8924 11.92 14.0451L12.0322 21.986C12.0331 22.0616 12.0191 22.1367 11.991 22.2068C11.963 22.277 11.9214 22.341 11.8687 22.3951C11.8159 22.4491 11.7531 22.4923 11.6838 22.522C11.6144 22.5517 11.5399 22.5675 11.4645 22.5684H11.4578Z" fill="#EDB24E"/>
</svg>
