<svg width="18" height="29" viewBox="0 0 18 29" fill="none" xmlns="http://www.w3.org/2000/svg">
<path d="M8.25341 28.3435H8.14281C7.94331 28.3162 7.76144 28.215 7.63336 28.06C7.50527 27.9051 7.44036 27.7078 7.4515 27.5074C7.7142 23.1842 4.94434 18.6497 0.395515 15.9437C0.275086 15.8731 0.175239 15.7724 0.105865 15.6515C0.0364924 15.5307 0 15.3938 0 15.2546C0 15.1153 0.0364924 14.9785 0.105865 14.8576C0.175239 14.7367 0.275086 14.636 0.395515 14.5654C5.11948 11.9054 8.26725 6.40147 8.23038 0.865414C8.22787 0.655736 8.30811 0.453477 8.45381 0.302225C8.5995 0.150972 8.79899 0.0628487 9.00925 0.0568379C9.21794 0.0540097 9.41977 0.131016 9.57322 0.272024C9.72668 0.413033 9.82009 0.607314 9.83422 0.814884C9.98631 3.68628 10.143 6.64957 11.1431 9.3326C12.2031 12.1948 14.1987 14.299 16.4754 14.9651C16.6484 15.0148 16.7996 15.1211 16.9046 15.2669C17.0097 15.4127 17.0625 15.5894 17.0545 15.7687C17.0465 15.948 16.9782 16.1194 16.8606 16.2553C16.7431 16.3912 16.583 16.4837 16.4063 16.518C14.4245 16.9085 12.5626 18.443 11.2998 20.7217C10.12 22.858 9.5577 25.3389 8.99543 27.7325C8.95473 27.9007 8.8604 28.0511 8.72661 28.1613C8.59282 28.2715 8.42677 28.3354 8.25341 28.3435ZM2.30354 15.2592C5.19944 17.2061 7.37651 20.0443 8.50229 23.3404C8.85658 22.1606 9.33066 21.02 9.91718 19.9361C10.8717 18.1204 12.3395 16.6237 14.1388 15.6313C12.0481 14.259 10.4727 12.2346 9.65909 9.87472C9.28632 8.8554 9.00409 7.8054 8.81568 6.73685C7.5877 10.184 5.31117 13.1633 2.30354 15.2592Z" fill="#EDB24E"/>
</svg>
