<svg width="27" height="33" viewBox="0 0 27 33" fill="none" xmlns="http://www.w3.org/2000/svg">
<path d="M22.0557 32.0887C20.7556 32.0887 19.4656 31.5337 18.3056 30.9787C17.1192 30.4753 16.0126 29.8015 15.0206 28.9787C12.6506 26.8487 12.0206 23.6037 11.7106 20.4087C11.6606 19.9087 11.6107 19.3487 11.5707 18.7987C7.81048 18.8475 4.20856 20.3198 1.49064 22.9187C1.4095 23.0013 1.31267 23.0668 1.20585 23.1115C1.09903 23.1562 0.984369 23.1792 0.868573 23.179C0.752777 23.1788 0.638179 23.1555 0.531506 23.1104C0.424833 23.0654 0.328232 22.9995 0.247357 22.9166C0.166481 22.8337 0.102965 22.7356 0.060528 22.6278C0.0180908 22.5201 -0.0024093 22.405 0.000225234 22.2892C0.00285977 22.1734 0.0285839 22.0594 0.0758783 21.9537C0.123173 21.848 0.191085 21.7528 0.275646 21.6737C3.29404 18.7851 7.28856 17.1377 11.4657 17.0586C11.3137 14.5691 11.4817 12.0704 11.9657 9.62365C12.8307 5.64865 14.7957 2.29364 17.5107 0.183644C17.693 0.0417531 17.9242 -0.0218963 18.1535 0.00670297C18.3828 0.0353023 18.5913 0.153804 18.7332 0.33614C18.8751 0.518477 18.9387 0.749715 18.9101 0.978978C18.8815 1.20824 18.763 1.41675 18.5806 1.55864C16.1856 3.41865 14.4457 6.41364 13.6707 9.99365C13.1971 12.3422 13.029 14.742 13.1707 17.1336C17.2989 17.5669 21.1157 19.5288 23.8707 22.6336C25.2157 24.1636 25.9407 25.6336 26.0907 27.1336C26.2907 29.1336 25.2407 31.0987 23.5907 31.7937C23.103 31.9906 22.5816 32.0908 22.0557 32.0887ZM13.3207 18.9037C13.3607 19.3587 13.4007 19.8036 13.4457 20.2436C13.7257 23.0836 14.2507 25.9537 16.1857 27.6887C17.0557 28.3955 18.0221 28.9747 19.0556 29.4087C20.4107 30.0587 21.8256 30.6487 22.9606 30.1687C24.0956 29.6887 24.5057 28.3437 24.4007 27.2837C24.2957 26.2237 23.7007 25.0187 22.6057 23.7837C20.2065 21.0828 16.9058 19.348 13.3207 18.9037Z" fill="black"/>
</svg>
