<svg width="20" height="32" viewBox="0 0 20 32" fill="none" xmlns="http://www.w3.org/2000/svg">
<path d="M9.26469 31.8924H9.14053C8.91658 31.8615 8.71243 31.7475 8.56865 31.5728C8.42488 31.3981 8.35201 31.1757 8.36451 30.9497C8.6594 26.0755 5.55016 20.9629 0.443977 17.912C0.308792 17.8324 0.19671 17.7189 0.118837 17.5826C0.0409638 17.4463 0 17.292 0 17.135C0 16.978 0.0409638 16.8237 0.118837 16.6874C0.19671 16.5512 0.308792 16.4376 0.443977 16.358C5.74675 13.3589 9.28021 7.15345 9.23883 0.911728C9.23601 0.675323 9.32609 0.447282 9.48964 0.27675C9.65318 0.106218 9.87711 0.00686179 10.1131 8.48211e-05C10.3474 -0.00310388 10.574 0.0837185 10.7462 0.242701C10.9185 0.401683 11.0233 0.620728 11.0392 0.854757C11.2099 4.09216 11.3858 7.43317 12.5084 10.4582C13.6983 13.6853 15.9384 16.0576 18.4941 16.8087C18.6883 16.8647 18.858 16.9846 18.9759 17.1489C19.0938 17.3133 19.1531 17.5125 19.1441 17.7147C19.1352 17.9168 19.0585 18.1101 18.9265 18.2633C18.7945 18.4166 18.6149 18.5209 18.4165 18.5595C16.1919 18.9998 14.1019 20.7298 12.6843 23.299C11.3599 25.7077 10.7288 28.5048 10.0976 31.2035C10.0519 31.3931 9.94605 31.5628 9.79586 31.687C9.64567 31.8112 9.45928 31.8833 9.26469 31.8924ZM2.58579 17.1402C5.83651 19.3353 8.28034 22.5353 9.54406 26.2516C9.94176 24.9214 10.4739 23.6353 11.1323 22.4133C12.2038 20.3662 13.8514 18.6787 15.8712 17.5598C13.5243 16.0126 11.7559 13.7301 10.8426 11.0694C10.4241 9.92018 10.1073 8.73634 9.89585 7.53158C8.51741 11.4182 5.96194 14.7772 2.58579 17.1402Z" fill="#EDB24E"/>
</svg>
