<svg width="23" height="37" viewBox="0 0 23 37" fill="none" xmlns="http://www.w3.org/2000/svg">
<path d="M10.6898 36.7983H10.5466C10.2882 36.7627 10.0526 36.631 9.88674 36.4295C9.72084 36.228 9.63676 35.9713 9.65119 35.7106C9.99144 30.0865 6.40392 24.1876 0.512272 20.6673C0.356292 20.5755 0.226969 20.4445 0.137117 20.2873C0.0472651 20.13 0 19.952 0 19.7708C0 19.5897 0.0472651 19.4117 0.137117 19.2544C0.226969 19.0972 0.356292 18.9662 0.512272 18.8743C6.63075 15.4139 10.7078 8.25384 10.66 1.05198C10.6568 0.779206 10.7607 0.516086 10.9494 0.319322C11.1381 0.122557 11.3965 0.00791731 11.6688 9.78688e-05C11.9391 -0.00358134 12.2005 0.0965966 12.3993 0.280034C12.598 0.463472 12.719 0.716212 12.7373 0.986241C12.9343 4.72165 13.1372 8.57659 14.4326 12.0669C15.8055 15.7904 18.3902 18.5277 21.339 19.3943C21.5631 19.459 21.7589 19.5972 21.8949 19.7869C22.031 19.9765 22.0993 20.2064 22.089 20.4397C22.0786 20.6729 21.9902 20.8959 21.8379 21.0727C21.6856 21.2495 21.4783 21.3699 21.2494 21.4144C18.6827 21.9224 16.2711 23.9186 14.6355 26.883C13.1074 29.6622 12.3791 32.8896 11.6509 36.0034C11.5982 36.2222 11.476 36.4179 11.3027 36.5613C11.1294 36.7046 10.9144 36.7878 10.6898 36.7983ZM2.98355 19.7768C6.73432 22.3095 9.55407 26.0018 11.0122 30.2897C11.4711 28.755 12.0851 27.2711 12.8447 25.861C14.0811 23.4991 15.9822 21.552 18.3126 20.2609C15.6047 18.4757 13.5643 15.8421 12.5105 12.7722C12.0277 11.4462 11.6621 10.0802 11.4181 8.69013C9.82761 13.1746 6.87904 17.0503 2.98355 19.7768Z" fill="#EDB24E"/>
</svg>
